<?xml version="1.0" standalone="no"?>
<!DOCTYPE svg PUBLIC "-//W3C//DTD SVG 20010904//EN"
 "http://www.w3.org/TR/2001/REC-SVG-20010904/DTD/svg10.dtd">
<svg version="1.0" xmlns="http://www.w3.org/2000/svg"
 width="480.000000pt" height="480.000000pt" viewBox="0 0 480.000000 480.000000"
 preserveAspectRatio="xMidYMid meet">

<g transform="translate(0.000000,480.000000) scale(0.100000,-0.100000)"
 fill="rgb(66,133,244)" stroke="none">
<path d="M2246 4199 c-116 -17 -303 -68 -392 -107 -134 -59 -183 -88 -297
-173 -329 -246 -535 -590 -613 -1024 -25 -140 -25 -460 0 -600 85 -474 324
-843 701 -1087 89 -57 254 -135 355 -167 159 -50 523 -77 702 -52 200 29 290
54 434 121 269 126 522 375 658 647 41 83 43 91 19 100 -10 3 -79 32 -153 64
-74 32 -178 76 -230 98 l-95 39 -36 -74 c-86 -173 -220 -311 -384 -393 -149
-75 -241 -94 -450 -95 -186 0 -242 10 -361 64 -150 68 -330 220 -423 359 -63
93 -128 236 -158 348 -25 92 -26 111 -26 328 0 216 1 236 25 326 34 126 110
284 185 385 97 128 259 263 387 319 262 116 621 92 861 -57 114 -71 265 -249
327 -387 l23 -49 120 49 c66 28 176 73 245 101 69 27 129 54 134 58 22 21 -98
235 -204 365 -232 284 -522 446 -883 494 -92 13 -385 12 -471 0z"/>
</g>
</svg>
